<?xml version="1.0" standalone="no"?>
<!DOCTYPE svg PUBLIC "-//W3C//DTD SVG 20010904//EN"
 "http://www.w3.org/TR/2001/REC-SVG-20010904/DTD/svg10.dtd">
<svg version="1.0" xmlns="http://www.w3.org/2000/svg"
 width="26px" height="26px" viewBox="0 0 512.000000 512.000000"
 preserveAspectRatio="xMidYMid meet">

<g transform="translate(0.000000,512.000000) scale(0.100000,-0.100000)"
fill="#000000" stroke="none">
<path fill="currentColor" d="M838 5104 c-169 -40 -318 -174 -381 -341 -21 -57 -22 -71 -27 -602
l-5 -544 -41 -12 c-117 -35 -253 -142 -312 -248 -60 -106 -67 -143 -67 -357 0
-189 1 -197 26 -251 57 -121 154 -180 307 -187 l92 -4 0 -837 c0 -921 -2 -894
62 -1013 60 -113 194 -223 316 -259 l42 -12 0 -57 c0 -170 69 -296 194 -352
50 -22 59 -23 341 -23 l290 0 56 26 c121 57 180 154 187 307 l4 92 638 0 638
0 4 -93 c7 -152 66 -249 187 -306 l56 -26 290 0 c282 0 291 1 341 23 125 56
194 182 194 352 l0 57 43 12 c121 36 255 146 315 259 64 119 62 92 62 1013 l0
837 93 4 c152 7 249 66 306 187 25 54 26 62 26 251 0 214 -7 251 -67 357 -59
106 -195 213 -312 248 l-41 12 -5 544 c-5 531 -6 545 -27 602 -64 169 -213
301 -385 342 -91 21 -3352 21 -3440 -1z m3032 -443 c61 -32 117 -86 148 -146
23 -43 27 -62 27 -140 0 -106 -20 -158 -88 -225 -51 -52 -96 -75 -172 -89 -82
-15 -2368 -15 -2450 0 -76 14 -121 37 -172 89 -68 67 -88 119 -88 225 0 75 4
98 24 135 42 81 117 145 201 171 14 4 588 7 1275 6 l1250 -2 45 -24z m206
-849 c58 -27 123 -89 153 -148 39 -76 42 -131 39 -717 l-3 -562 -33 -67 c-37
-76 -82 -120 -162 -157 l-55 -26 -1455 0 -1455 0 -67 33 c-76 37 -120 82 -157
162 l-26 55 -3 562 c-3 586 0 642 39 717 25 50 83 112 124 134 80 42 44 41
1560 39 l1450 -2 51 -23z m-2561 -2137 c135 -59 210 -200 183 -345 -13 -71
-37 -116 -88 -167 -67 -68 -119 -88 -225 -88 -75 0 -98 4 -135 24 -61 32 -116
86 -148 146 -23 43 -27 62 -27 140 0 106 20 158 88 225 50 51 86 70 157 86 69
15 130 8 195 -21z m2270 24 c76 -14 121 -37 172 -89 68 -67 88 -119 88 -225 0
-78 -4 -97 -27 -140 -32 -60 -87 -114 -148 -146 -65 -34 -204 -34 -272 -1 -55
27 -122 91 -148 142 -96 188 22 425 229 460 25 4 46 8 47 9 0 0 27 -4 59 -10z"/>
</g>
</svg>
